#!OML:ASF X:\für Bonn\!DataBase\2005_08_11_Bastian_Final\c3d\Bastian.ASF
:FULLY-SPECIFIED
:DEGREES
65
root -0.840496 17.0751 -4.23158 137.818 10.1851 -182.808
lowerback 45.5505 -1.91236 1.49552
upperback 17.2434 6.50973 -3.85264
thorax -1.06618 7.21983 -7.33516
lowerneck -15.5997 -0.110167 -4.14389
upperneck -10.5174 -0.927129 5.21846
head -0.706544 -0.991201 2.36153
rclavicle 1.66979e-014 5.1684e-015
rhumerus -28.4158 36.7433 -86.2139
rradius 113.953
rwrist 10.8322
rhand -17.9141 12.1031
rfingers 7.12502
rthumb 8.3532 -17.7117
lclavicle 1.66979e-014 5.1684e-015
lhumerus -39.5539 -5.6946 85.3504
lradius 29.2158
lwrist 21.3202
lhand -11.4294 -12.6502
lfingers 7.12502
lthumb 14.6068 16.8155
rfemur 31.0566 -2.1249 21.2623
rtibia 37.5389
rfoot -192.085 -179.164
rtoes 0.460397
lfemur -68.3799 28.7621 -10.7038
ltibia 114.727
lfoot 9.27755 -7.11425
ltoes -33.3622
66
root -0.851904 17.1126 -4.24953 136.72 11.2756 -183.219
lowerback 46.7941 -1.68512 1.12018
upperback 17.437 6.96278 -4.03684
thorax -1.08015 7.58253 -7.56035
lowerneck -16.417 -0.0805478 -4.09046
upperneck -10.2631 -0.924671 5.16631
head -0.494365 -0.999924 2.33179
rclavicle -7.77248e-014 7.39479e-014
rhumerus -27.2984 37.2443 -85.0843
rradius 115.05
rwrist 10.8952
rhand -17.8835 12.2472
rfingers 7.12502
rthumb 8.38277 -17.5664
lclavicle -7.77248e-014 7.39479e-014
lhumerus -40.3992 -5.50201 86.0255
lradius 27.6455
lwrist 20.5914
lhand -10.8362 -12.6979
lfingers 7.12502
lthumb 15.1783 16.7254
rfemur 31.3241 -2.04632 20.5941
rtibia 38.5107
rfoot -190.813 -177.908
rtoes 1.22142
lfemur -70.8558 28.5144 -10.7155
ltibia 111.484
lfoot 11.6585 -8.2421
ltoes -36.3294
67
root -0.863412 17.1403 -4.27171 135.697 12.3227 -183.641
lowerback 48.9659 -1.37182 0.565782
upperback 16.6393 7.42506 -4.33775
thorax -1.16692 7.93706 -7.66083
lowerneck -17.2397 -0.0412208 -3.96421
upperneck -10.0042 -0.925069 5.06067
head -0.280642 -1.01345 2.27189
rclavicle 9.34288e-015 -4.77083e-015
rhumerus -26.3751 37.6082 -84.0561
rradius 116.26
rwrist 10.7601
rhand -17.7587 12.456
rfingers 7.12502
rthumb 8.50316 -17.3528
lclavicle 9.34288e-015 -4.77083e-015
lhumerus -41.3071 -5.49397 86.8726
lradius 26.1962
lwrist 20.3097
lhand -10.2347 -12.7586
lfingers 7.12502
lthumb 15.7576 16.62
rfemur 31.3151 -2.10749 19.7625
rtibia 39.823
rfoot -189.563 -176.604
rtoes 1.60279
lfemur -72.9431 28.1273 -10.5265
ltibia 107.75
lfoot 14.0857 -9.26102
ltoes -38.4207
68
root -0.874693 17.1628 -4.3003 134.732 13.3134 -184.067
lowerback 50.087 -1.06409 0.113601
upperback 16.7199 7.86622 -4.52515
thorax -1.16553 8.27292 -7.84757
lowerneck -18.0326 0.00070251 -3.80916
upperneck -9.75333 -0.929003 4.94221
head -0.074281 -1.0301 2.20351
rclavicle -2.60408e-014 1.15295e-014
rhumerus -25.7128 37.8192 -83.2152
rradius 117.532
rwrist 10.4956
rhand -17.5844 12.7832
rfingers 7.12502
rthumb 8.67141 -17.0187
lclavicle -2.60408e-014 1.15295e-014
lhumerus -42.2109 -5.60065 87.8679
lradius 24.8255
lwrist 20.3613
lhand -9.56853 -12.6575
lfingers 7.12502
lthumb 16.3991 16.6693
rfemur 31.1433 -2.27511 18.7906
rtibia 41.2825
rfoot -188.122 -175.284
rtoes 2.41168
lfemur -74.6771 27.616 -10.195
ltibia 103.433
lfoot 16.3349 -10.1978
ltoes -41.7515
